# xmcd CD database file
#
# Track frame offsets:
#	150
#	21007
#	44855
#	74052
#	97725
#	125682
#	155567
#	176795
#	199072
#	233037
#
# Disc length: 3547 seconds
#
# Revision: 0
# Processed by: cddbd v1.5.2PL0 Copyright (c) Steve Scherf et al.
# Submitted via: CDex 1.51
#
DISCID=8e0dd90a
DTITLE=Ghalib Ghallab - Pleasured Pressure
DYEAR=1990
DGENRE=Jazz
TTITLE0=Room in the Back
TTITLE1=Inner City Blues
TTITLE2=That's the Way I Feel About Your Love
TTITLE3=Night and Day
TTITLE4=Stars in Your Eyes
TTITLE5=I Shot the Sheriff
TTITLE6=City Slick
TTITLE7=Red Panties
TTITLE8=My Place in Space
TTITLE9=Song for My Father
EXTD=YEAR: 1990
EXTT0=
EXTT1=
EXTT2=
EXTT3=
EXTT4=
EXTT5=
EXTT6=
EXTT7=
EXTT8=
EXTT9=
PLAYORDER=
